<?xml version="1.0" encoding="UTF-8" standalone="no"?>
<!-- Created with Inkscape (http://www.inkscape.org/) -->

<svg
   width="29.853144mm"
   height="29.853146mm"
   viewBox="0 0 29.853144 29.853146"
   version="1.1"
   id="svg1"
   xmlns:inkscape="http://www.inkscape.org/namespaces/inkscape"
   xmlns:sodipodi="http://sodipodi.sourceforge.net/DTD/sodipodi-0.dtd"
   xmlns="http://www.w3.org/2000/svg"
   xmlns:svg="http://www.w3.org/2000/svg">
  <sodipodi:namedview
     id="namedview1"
     pagecolor="#505050"
     bordercolor="#ffffff"
     borderopacity="1"
     inkscape:showpageshadow="0"
     inkscape:pageopacity="0"
     inkscape:pagecheckerboard="1"
     inkscape:deskcolor="#505050"
     inkscape:document-units="mm">
    <inkscape:page
       x="0"
       y="0"
       width="29.853144"
       height="29.853146"
       id="page2"
       margin="0"
       bleed="0" />
  </sodipodi:namedview>
  <defs
     id="defs1">
    <clipPath
       clipPathUnits="userSpaceOnUse"
       id="clipPath1">
      <rect
         style="fill:#000000;stroke-width:0.2925"
         id="rect2"
         width="49.721577"
         height="42.355415"
         x="14.756857"
         y="14.566003" />
    </clipPath>
  </defs>
  <g
     inkscape:label="Layer 1"
     inkscape:groupmode="layer"
     id="layer1"
     transform="translate(-102.69117,-108.28659)">
    <g
       id="g1"
       style="stroke-width:0.2925"
       transform="matrix(0.90455843,0,0,0.90455843,82.790888,92.006337)"
       clip-path="url(#clipPath1)">
      <path
         fill="#19aa1e"
         d="M 22,17.998 H 55.003 V 51.001 H 22 Z"
         id="path1626"
         style="stroke-width:0.0842919" />
      <path
         fill-rule="evenodd"
         clip-rule="evenodd"
         d="M 22,17.998 H 55.003 V 28.826 L 22,23.67 Z"
         fill="#ffb919"
         id="path1628"
         style="stroke-width:0.0842919" />
      <path
         fill-rule="evenodd"
         clip-rule="evenodd"
         d="M 22,47.39 55.003,42.234 V 51 H 22 Z"
         fill="#82d714"
         id="path1630"
         style="stroke-width:0.0842919" />
      <path
         fill-rule="evenodd"
         clip-rule="evenodd"
         d="m 22,23.018 11.52,1.8 c 1.434,-0.908 3.14,-1.406 4.981,-1.406 2.55,0 4.842,0.955 6.51,2.631 0.21,0.212 0.408,0.433 0.595,0.663 l 9.397,1.468 v 1.305 l -8.443,-1.32 a 8.472,8.472 0 0 1 0.965,3.914 c 0,1.768 -0.395,3.531 -1.213,5.301 l -0.024,0.054 -0.348,0.744 h -0.82 c -1.696,0 -2.82,0.507 -3.556,1.406 -0.577,0.705 -0.911,1.657 -1.023,2.695 l -0.004,0.032 -0.016,0.166 -0.007,0.072 -0.014,0.141 c -0.043,0.464 -0.071,0.857 -0.086,1.177 l 14.589,-2.28 v 1.305 L 22,48.043 v -1.305 l 14.605,-2.282 -0.006,-0.293 -0.002,-0.082 -0.002,-0.043 -0.002,-0.065 c -0.013,-0.355 -0.046,-0.81 -0.098,-1.362 l -0.01,-0.105 -0.018,-0.181 c -0.104,-1.044 -0.433,-2.007 -1.01,-2.723 -0.727,-0.905 -1.84,-1.42 -3.523,-1.43 h -0.872 l -0.347,-0.744 c -0.834,-1.788 -1.238,-3.569 -1.238,-5.355 0,-2.246 0.911,-4.418 2.515,-6.03 L 32.132,25.906 22,24.322 Z"
         fill="#ffffff"
         id="path1632"
         style="stroke-width:0.0842919" />
      <path
         fill-rule="evenodd"
         clip-rule="evenodd"
         d="m 38.501,24.701 c 4.608,0 7.735,3.546 7.735,7.372 0,1.536 -0.335,3.134 -1.117,4.81 -4.533,0 -5.652,3.246 -5.864,5.29 l -0.014,0.135 c -0.071,0.73 -0.113,1.315 -0.124,1.755 l -1.228,0.192 v -0.04 A 23.516,23.516 0 0 0 37.757,42.27 l -0.003,-0.036 c -0.196,-2.039 -1.291,-5.351 -5.87,-5.351 -0.783,-1.676 -1.118,-3.274 -1.118,-4.81 0,-3.826 3.128,-7.372 7.735,-7.372 z"
         fill="#0073fa"
         id="path1634"
         style="stroke-width:0.0842919" />
    </g>
  </g>
</svg>
