<svg xmlns="http://www.w3.org/2000/svg" width="165mm" height="120mm" viewBox="0 0 165 120"><g style="fill:red;stroke:none"><path d="M84.142 184.936v-36.561s9.618-14.103 13.397 0c3.779 14.102-8.264 18.907-10.893 27.546-2.63 8.64-2.504 9.015-2.504 9.015z" style="fill:red;stroke:none;stroke-width:.264583" transform="matrix(3.8134 .91184 -.59453 2.39594 -158.103 -406.792)"/><path d="M84.149 185.019v-36.562s-9.62-14.102-13.398 0c-3.779 14.103 8.264 18.907 10.893 27.547 2.63 8.64 2.505 9.015 2.505 9.015" style="fill:red;stroke:none;stroke-width:.264583" transform="matrix(3.8134 .91184 -.59453 2.39594 -158.103 -406.792)"/></g><text xml:space="preserve" x="74.688141" y="90.114525" style="font-style:normal;font-variant:normal;font-weight:400;font-stretch:normal;font-size:135.987px;font-family:&quot;FiraCode Nerd Font Mono&quot;;-inkscape-font-specification:&quot;FiraCode Nerd Font Mono&quot;;text-align:start;writing-mode:lr-tb;direction:ltr;text-anchor:start;fill:#000;stroke-width:4.24958" transform="matrix(.95785 0 0 1.044 -.063 -1.94)"><tspan x="74.688141" y="90.114525" style="font-style:normal;font-variant:normal;font-weight:400;font-stretch:normal;font-family:&quot;TeX Gyre Chorus&quot;;-inkscape-font-specification:&quot;TeX Gyre Chorus&quot;;stroke-width:4.24958">T</tspan></text><text xml:space="preserve" x="-2.5883131" y="119.3105" style="font-style:normal;font-variant:normal;font-weight:400;font-stretch:normal;font-size:123.253px;font-family:&quot;FiraCode Nerd Font Mono&quot;;-inkscape-font-specification:&quot;FiraCode Nerd Font Mono&quot;;text-align:start;writing-mode:lr-tb;direction:ltr;text-anchor:start;fill:#000;stroke-width:3.85166" transform="scale(1.00658 .99347)"><tspan x="-2.5883131" y="119.3105" style="font-style:normal;font-variant:normal;font-weight:500;font-stretch:normal;font-size:123.253px;font-family:&quot;TeX Gyre Chorus&quot;;-inkscape-font-specification:&quot;TeX Gyre Chorus Medium&quot;;stroke-width:3.85166">A</tspan></text></svg>