<svg xmlns="http://www.w3.org/2000/svg" id="svg1" width="165mm" height="120mm" version="1.1" viewBox="0 0 165 120"><g id="layer2"><g id="g2" style="fill:red;stroke:none" transform="matrix(3.8134 .91184 -.59453 2.39594 -158.103 -406.792)"><path id="path2" d="m 84.141651,184.93634 v -36.56155 c 0,0 9.618758,-14.10267 13.397555,0 3.778794,14.10266 -8.263911,18.90683 -10.893337,27.54637 -2.629427,8.63954 -2.504218,9.01518 -2.504218,9.01518 z" style="fill:red;stroke:none;stroke-width:.264583"/><path id="path2-2" d="m 84.148652,185.01896 v -36.56155 c 0,0 -9.618758,-14.10267 -13.397555,0 -3.778798,14.10266 8.263911,18.90683 10.893337,27.54637 2.629427,8.63954 2.504218,9.01518 2.504218,9.01518 z" style="fill:red;stroke:none;stroke-width:.264583"/></g></g><g id="layer1" transform="translate(-.063 -1.94)"><text xml:space="preserve" id="text2" x="74.688141" y="90.114525" style="font-style:normal;font-variant:normal;font-weight:400;font-stretch:normal;font-size:135.987px;font-family:&quot;FiraCode Nerd Font Mono&quot;;-inkscape-font-specification:&quot;FiraCode Nerd Font Mono&quot;;text-align:start;writing-mode:lr-tb;direction:ltr;text-anchor:start;fill:#000;stroke-width:4.24958" transform="scale(.95785 1.044)"><tspan id="tspan2" x="74.688141" y="90.114525" style="font-style:normal;font-variant:normal;font-weight:400;font-stretch:normal;font-family:&quot;TeX Gyre Chorus&quot;;-inkscape-font-specification:&quot;TeX Gyre Chorus&quot;;stroke-width:4.24958">T</tspan></text></g><g id="layer3"><text xml:space="preserve" id="text1" x="-2.5883131" y="119.3105" style="font-style:normal;font-variant:normal;font-weight:400;font-stretch:normal;font-size:123.253px;font-family:&quot;FiraCode Nerd Font Mono&quot;;-inkscape-font-specification:&quot;FiraCode Nerd Font Mono&quot;;text-align:start;writing-mode:lr-tb;direction:ltr;text-anchor:start;fill:#000;stroke-width:3.85166" transform="scale(1.00658 .99347)"><tspan id="tspan1" x="-2.5883131" y="119.3105" style="font-style:normal;font-variant:normal;font-weight:500;font-stretch:normal;font-size:123.253px;font-family:&quot;TeX Gyre Chorus&quot;;-inkscape-font-specification:&quot;TeX Gyre Chorus Medium&quot;;stroke-width:3.85166">A</tspan></text></g></svg>